<svg width="320" height="93" viewBox="0 0 320 93" fill="none" xmlns="http://www.w3.org/2000/svg">
<g clip-path="url(#clip0)">
<mask id="mask0" style="mask-type:alpha" maskUnits="userSpaceOnUse" x="134" y="36" width="14" height="26">
<path fill-rule="evenodd" clip-rule="evenodd" d="M146.224 40.9273C145.288 40.7365 144.352 40.6382 143.419 40.6382C141.874 40.6382 140.311 40.9134 138.733 41.4593C138.766 41.6871 138.782 41.8779 138.782 42.0398V42.4747V61.3713H134.433V42.5707C134.433 42.2179 134.399 41.7657 134.334 41.2187C134.267 40.6706 134.172 39.994 134.044 39.188C137.91 37.5146 141.229 36.675 144 36.675C145.191 36.675 146.368 36.8219 147.529 37.1098L146.224 40.9273Z" fill="black"/>
</mask>
<g mask="url(#mask0)">
<path d="M132.444 35.075H149.13V62.9713H132.444V35.075Z" fill="white"/>
</g>
<mask id="mask1" style="mask-type:alpha" maskUnits="userSpaceOnUse" x="148" y="36" width="21" height="26">
<path fill-rule="evenodd" clip-rule="evenodd" d="M158.401 61.8536C155.341 61.8536 152.923 61.2731 151.154 60.1143C149.25 58.8572 148.302 57.0855 148.302 54.7981C148.302 52.4134 149.186 50.5932 150.958 49.3361C152.15 48.4676 154.034 47.7587 156.611 47.2116C157.869 46.9526 158.885 46.7363 159.657 46.5583C160.43 46.3813 160.963 46.2275 161.253 46.0991C162.607 45.5834 163.281 44.7958 163.281 43.7319C163.281 41.5403 161.703 40.4452 158.545 40.4452C156.742 40.4452 154.617 40.9598 152.165 41.9925L150.669 38.6087C153.375 37.3193 156.097 36.674 158.835 36.674C164.732 36.674 167.681 39.2529 167.681 44.4072V57.0219C167.681 57.3434 167.705 57.754 167.752 58.2536C167.8 58.7532 167.889 59.3719 168.018 60.1143C164.281 61.2731 161.075 61.8536 158.401 61.8536ZM163.355 56.7317C163.338 56.5709 163.331 56.4414 163.331 56.3442V48.7567C162.685 49.2401 161.075 49.7732 158.496 50.3526C156.789 50.7377 155.55 51.1575 154.777 51.6085C153.68 52.2862 153.135 53.2357 153.135 54.4592C153.135 56.9074 154.889 58.1333 158.401 58.1333C160.108 58.1333 161.784 57.8581 163.428 57.3111C163.396 57.0855 163.37 56.8924 163.355 56.7317Z" fill="white"/>
</mask>
<g mask="url(#mask1)">
<path d="M146.702 35.074H169.619V63.4537H146.702V35.074Z" fill="white"/>
</g>
<mask id="mask2" style="mask-type:alpha" maskUnits="userSpaceOnUse" x="173" y="26" width="6" height="36">
<path fill-rule="evenodd" clip-rule="evenodd" d="M177.974 30.8514C177.425 31.351 176.749 31.5996 175.942 31.5996C175.172 31.5996 174.52 31.351 173.986 30.8514C173.456 30.3518 173.188 29.7158 173.188 28.9421C173.188 28.1673 173.456 27.5266 173.986 27.0096C174.52 26.4938 175.172 26.236 175.942 26.236C176.718 26.236 177.384 26.4939 177.948 27.0096C178.512 27.5266 178.796 28.1673 178.796 28.9421C178.796 29.7158 178.521 30.3518 177.974 30.8514H177.974ZM173.866 61.3693H178.213V37.205H173.866V61.3693Z" fill="white"/>
</mask>
<g mask="url(#mask2)">
<path d="M171.589 24.636H180.397V62.9694H171.589V24.636Z" fill="white"/>
</g>
<mask id="mask3" style="mask-type:alpha" maskUnits="userSpaceOnUse" x="184" y="36" width="14" height="26">
<path fill-rule="evenodd" clip-rule="evenodd" d="M196.193 40.9273C195.256 40.7365 194.324 40.6382 193.387 40.6382C191.841 40.6382 190.279 40.9134 188.701 41.4593C188.733 41.6871 188.751 41.8779 188.751 42.0398V42.4747V61.3713H184.4V42.5707C184.4 42.2179 184.368 41.7657 184.304 41.2187C184.238 40.6706 184.141 39.994 184.013 39.188C187.881 37.5146 191.198 36.675 193.97 36.675C195.16 36.675 196.337 36.8219 197.498 37.1098L196.193 40.9273Z" fill="black"/>
</mask>
<g mask="url(#mask3)">
<path d="M182.413 35.075H199.099V62.9713H182.413V35.075Z" fill="white"/>
</g>
<mask id="mask4" style="mask-type:alpha" maskUnits="userSpaceOnUse" x="199" y="26" width="7" height="36">
<path fill-rule="evenodd" clip-rule="evenodd" d="M204.455 30.8514C203.909 31.351 203.23 31.5996 202.427 31.5996C201.652 31.5996 201.001 31.351 200.47 30.8514C199.937 30.3518 199.672 29.7158 199.672 28.9421C199.672 28.1673 199.937 27.5266 200.47 27.0096C201.001 26.4938 201.652 26.236 202.427 26.236C203.199 26.236 203.869 26.4939 204.433 27.0096C204.994 27.5266 205.277 28.1673 205.277 28.9421C205.277 29.7158 205.004 30.3518 204.455 30.8514ZM200.349 61.3693H204.698V37.205H200.349V61.3693Z" fill="white"/>
</mask>
<g mask="url(#mask4)">
<path d="M198.072 24.636H206.878V62.9694H198.072V24.636Z" fill="white"/>
</g>
<mask id="mask5" style="mask-type:alpha" maskUnits="userSpaceOnUse" x="209" y="36" width="22" height="26">
<path fill-rule="evenodd" clip-rule="evenodd" d="M230.047 49.3361C229.997 49.7882 229.941 50.2716 229.875 50.7874H213.783C213.944 53.0414 214.652 54.798 215.91 56.054C217.262 57.4394 219.066 58.1321 221.324 58.1321C223.289 58.1321 225.205 57.7632 227.072 57.0208L228.427 60.3063C226.075 61.3379 223.578 61.8536 220.935 61.8536C217.327 61.8536 214.444 60.6798 212.286 58.323C210.127 55.9742 209.047 52.9454 209.047 49.2401C209.047 45.6955 209.916 42.7812 211.658 40.4937C213.591 37.9472 216.263 36.674 219.679 36.674C222.966 36.674 225.559 37.7853 227.461 40.0104C229.231 42.0723 230.12 44.7785 230.12 48.1276C230.12 48.4838 230.092 48.8839 230.047 49.3361M224.076 42.4736C223.078 41.0893 221.629 40.3966 219.729 40.3966C217.89 40.3966 216.46 41.0477 215.427 42.3533C214.396 43.6578 213.849 45.2942 213.783 47.2567H225.526C225.462 45.3243 224.978 43.7318 224.076 42.4736" fill="white"/>
</mask>
<g mask="url(#mask5)">
<path d="M207.447 35.074H231.72V63.4537H207.447V35.074Z" fill="white"/>
</g>
<mask id="mask6" style="mask-type:alpha" maskUnits="userSpaceOnUse" x="234" y="27" width="26" height="35">
<path fill-rule="evenodd" clip-rule="evenodd" d="M257.948 33.5127C255.533 32.3226 253.148 31.7259 250.796 31.7259C247.219 31.7259 244.353 32.9969 242.194 35.5422C240.165 37.9592 239.149 40.988 239.149 44.6286C239.149 48.2691 240.18 51.3141 242.241 53.7623C244.467 56.3713 247.381 57.6769 250.991 57.6769C253.083 57.6769 255.307 57.2097 257.659 56.2742L259.11 59.8997C256.273 61.1232 253.42 61.7361 250.554 61.7361C245.72 61.7361 241.774 60.0616 238.714 56.7101C235.749 53.3923 234.269 49.3169 234.269 44.484C234.269 39.6188 235.766 35.607 238.764 32.4487C241.823 29.2915 245.767 27.713 250.602 27.713C253.532 27.713 256.565 28.5028 259.688 30.0826L257.948 33.5127Z" fill="black"/>
</mask>
<g mask="url(#mask6)">
<path d="M232.669 26.113H261.288V63.3362H232.669V26.113Z" fill="white"/>
</g>
<mask id="mask7" style="mask-type:alpha" maskUnits="userSpaceOnUse" x="261" y="36" width="20" height="26">
<path fill-rule="evenodd" clip-rule="evenodd" d="M271.289 61.7365C268.228 61.7365 265.811 61.156 264.039 59.9972C262.137 58.7401 261.188 56.9684 261.188 54.6809C261.188 52.2952 262.072 50.476 263.847 49.2201C265.039 48.3493 266.922 47.6427 269.5 47.0934C270.756 46.8343 271.773 46.6181 272.545 46.4411C273.318 46.2642 273.851 46.1115 274.14 45.982C275.492 45.4662 276.17 44.6775 276.17 43.6113C276.17 41.4232 274.592 40.3269 271.434 40.3269C269.629 40.3269 267.502 40.8427 265.054 41.8731L263.557 38.4893C266.26 37.2021 268.984 36.558 271.723 36.558C277.62 36.558 280.566 39.1357 280.566 44.2913V56.9037C280.566 57.2275 280.591 57.6357 280.64 58.1376C280.688 58.6361 280.778 59.2559 280.904 59.9972C277.169 61.156 273.962 61.7365 271.289 61.7365M276.241 56.6122C276.224 56.4527 276.219 56.3231 276.219 56.2272V48.6419C275.574 49.1253 273.962 49.655 271.384 50.2344C269.676 50.6218 268.437 51.0416 267.665 51.4914C266.567 52.168 266.02 53.1186 266.02 54.3433C266.02 56.7915 267.777 58.0162 271.289 58.0162C272.996 58.0162 274.671 57.7398 276.314 57.1951C276.282 56.9684 276.257 56.7742 276.241 56.6123" fill="white"/>
</mask>
<g mask="url(#mask7)">
<path d="M259.588 34.958H282.505V63.3366H259.588V34.958Z" fill="white"/>
</g>
<mask id="mask8" style="mask-type:alpha" maskUnits="userSpaceOnUse" x="285" y="36" width="14" height="26">
<path fill-rule="evenodd" clip-rule="evenodd" d="M297.575 40.8103C296.641 40.6172 295.706 40.5189 294.772 40.5189C293.227 40.5189 291.663 40.7953 290.086 41.3423C290.117 41.5689 290.133 41.7609 290.133 41.9217V42.3565V61.2531H285.786V42.4536C285.786 42.0986 285.751 41.6487 285.689 41.1017C285.622 40.5524 285.525 39.877 285.397 39.071C289.264 37.3953 292.583 36.558 295.355 36.558C296.545 36.558 297.72 36.7025 298.881 36.9928L297.575 40.8103Z" fill="black"/>
</mask>
<g mask="url(#mask8)">
<path d="M283.798 34.958H300.481V62.8531H283.798V34.958Z" fill="white"/>
</g>
<mask id="mask9" style="mask-type:alpha" maskUnits="userSpaceOnUse" x="298" y="36" width="22" height="26">
<path fill-rule="evenodd" clip-rule="evenodd" d="M319.927 49.2191C319.879 49.6702 319.823 50.1536 319.758 50.6693H303.665C303.826 52.9244 304.536 54.6776 305.79 55.937C307.143 57.3213 308.947 58.0152 311.205 58.0152C313.167 58.0152 315.085 57.6451 316.955 56.9027L318.307 60.1894C315.956 61.2209 313.458 61.7356 310.816 61.7356C307.208 61.7356 304.325 60.5594 302.168 58.206C300.008 55.8561 298.928 52.8273 298.928 49.122C298.928 45.5774 299.799 42.6632 301.538 40.3757C303.473 37.8303 306.146 36.557 309.56 36.557C312.848 36.557 315.44 37.6684 317.34 39.8923C319.114 41.9531 320 44.6604 320 48.0106C320 48.3668 319.977 48.767 319.927 49.2191M313.957 42.3555C312.961 40.9712 311.51 40.2774 309.611 40.2774C307.774 40.2774 306.341 40.9308 305.309 42.2352C304.275 43.5397 303.73 45.1761 303.665 47.1398H315.406C315.343 45.2062 314.862 43.6138 313.957 42.3555" fill="white"/>
</mask>
<g mask="url(#mask9)">
<path d="M297.328 34.957H321.6V63.3356H297.328V34.957Z" fill="white"/>
</g>
<mask id="mask10" style="mask-type:alpha" maskUnits="userSpaceOnUse" x="108" y="27" width="22" height="36">
<path fill-rule="evenodd" clip-rule="evenodd" d="M126.446 48.8213C124.222 51.1736 121.373 52.3508 117.892 52.3508C116.444 52.3508 114.961 52.0906 113.446 51.5772V62.692H109.097V31.9554C109.097 31.3425 109 30.3295 108.808 28.9116C111.9 27.7505 114.817 27.17 117.554 27.17C121.389 27.17 124.384 28.3461 126.543 30.6972C128.732 33.0518 129.829 36.062 129.829 39.7361C129.829 43.4426 128.7 46.4702 126.446 48.8213M123.305 33.5988C122.014 31.8271 120.098 30.9401 117.554 30.9401C116.167 30.9401 114.751 31.2153 113.3 31.7623C113.3 31.7947 113.325 31.9473 113.373 32.2226C113.421 32.4955 113.446 32.7129 113.446 32.8725V47.8545C114.477 48.3726 115.718 48.6282 117.167 48.6282C122.386 48.6282 124.997 45.6641 124.997 39.7361C124.997 37.2231 124.431 35.1773 123.305 33.5987" fill="white"/>
</mask>
<g mask="url(#mask10)">
<path d="M107.208 25.57H131.429V64.292H107.208V25.57Z" fill="white"/>
</g>
<mask id="mask11" style="mask-type:alpha" maskUnits="userSpaceOnUse" x="54" y="21" width="22" height="20">
<path fill-rule="evenodd" clip-rule="evenodd" d="M56.439 31.8465C59.7222 39.1681 67.3306 42.9416 75.2848 39.374C75.3414 39.3485 75.3923 39.315 75.449 39.2884C72.5659 30.564 64.9864 23.7906 55.4953 21.576C54.5956 24.8164 54.9055 28.4257 56.439 31.8465Z" fill="black"/>
</mask>
<g mask="url(#mask11)">
<path d="M52.9951 19.976H77.0485V44.5417H52.9951V19.976Z" fill="white"/>
</g>
<mask id="mask12" style="mask-type:alpha" maskUnits="userSpaceOnUse" x="22" y="21" width="21" height="20">
<path fill-rule="evenodd" clip-rule="evenodd" d="M40.9673 32.0281C42.5748 28.5576 42.9125 24.8777 41.985 21.576C32.4823 23.7952 24.8982 30.5837 22.0244 39.3231C22.0267 39.3242 22.029 39.3254 22.0325 39.3277C29.9416 42.9891 37.5974 39.3069 40.9673 32.0281Z" fill="black"/>
</mask>
<g mask="url(#mask12)">
<path d="M20.4248 19.976H44.5129V44.5891H20.4248L20.4248 19.976Z" fill="white"/>
</g>
<mask id="mask13" style="mask-type:alpha" maskUnits="userSpaceOnUse" x="21" y="52" width="22" height="21">
<path fill-rule="evenodd" clip-rule="evenodd" d="M40.8255 61.3424C37.5435 54.022 29.934 50.2484 21.9798 53.815C21.8965 53.852 21.8214 53.9029 21.7393 53.9422C24.317 62.9811 31.8826 70.0957 41.4917 72.515C42.7268 69.0502 42.5036 65.0859 40.8255 61.3424Z" fill="black"/>
</mask>
<g mask="url(#mask13)">
<path d="M20.1396 48.6479H44.3272V74.1145H20.1396V48.6479Z" fill="white"/>
</g>
<mask id="mask14" style="mask-type:alpha" maskUnits="userSpaceOnUse" x="20" y="20" width="57" height="54">
<path fill-rule="evenodd" clip-rule="evenodd" d="M52.3172 59.2483C56.7893 49.5906 66.8146 45.6864 76.5567 49.8323C76.6539 48.9361 76.7036 48.0271 76.7036 47.1077C76.7036 45.853 76.6065 44.6202 76.4249 43.4151C66.6077 47.5009 56.5823 43.4776 52.2166 33.7401C50.2529 29.3618 49.9152 24.8978 51.0081 20.8907C50.2576 20.834 49.5047 20.797 48.7403 20.797C47.9724 20.797 47.2161 20.834 46.4632 20.8918C47.5873 24.9753 47.2253 29.5271 45.1668 33.9738C40.7156 43.5874 30.7561 47.5021 21.0557 43.4452C20.8776 44.6421 20.7793 45.8645 20.7793 47.1077C20.7793 47.997 20.8279 48.8748 20.9204 49.741C30.7122 45.7119 40.6936 49.7352 45.0488 59.4483C47.1744 64.191 47.3918 69.0308 45.9555 73.282C46.8726 73.3675 47.8001 73.4138 48.7403 73.4138C49.6099 73.4138 50.4703 73.371 51.3192 73.2981C49.8482 68.973 50.0957 64.0476 52.3172 59.2483" fill="black"/>
</mask>
<g mask="url(#mask14)">
<path d="M19.1797 19.197H78.304V75.0138H19.1797L19.1797 19.197Z" fill="white"/>
</g>
<mask id="mask15" style="mask-type:alpha" maskUnits="userSpaceOnUse" x="54" y="52" width="22" height="21">
<path fill-rule="evenodd" clip-rule="evenodd" d="M56.517 61.193C54.758 64.992 54.5163 69.0396 55.7954 72.568C65.4646 70.2053 73.0961 63.0919 75.7189 54.0368C75.6264 53.9917 75.5443 53.9374 75.4541 53.8946C67.5439 50.232 59.8881 53.9119 56.517 61.193" fill="black"/>
</mask>
<g mask="url(#mask15)">
<path d="M52.916 48.632H77.3186V74.1679H52.916L52.916 48.632Z" fill="white"/>
</g>
<g clip-path="url(#clip1)">
<mask id="mask16" style="mask-type:alpha" maskUnits="userSpaceOnUse" x="0" y="0" width="98" height="93">
<path fill-rule="evenodd" clip-rule="evenodd" d="M48.6767 4.0207C23.563 4.0207 3.13171 23.203 3.13171 46.7821C3.13171 70.3555 23.563 89.5343 48.6767 89.5343C73.7917 89.5343 94.2229 70.3555 94.2229 46.7821C94.2229 23.203 73.7917 4.0207 48.6767 4.0207ZM48.6767 92.666C21.8364 92.666 0 72.0832 0 46.7821C0 21.4764 21.8364 0.888977 48.6767 0.888977C75.5183 0.888977 97.3546 21.4764 97.3546 46.7821C97.3546 72.0832 75.5183 92.666 48.6767 92.666Z" fill="white"/>
</mask>
<g mask="url(#mask16)">
<mask id="mask17" style="mask-type:alpha" maskUnits="userSpaceOnUse" x="0" y="0" width="98" height="93">
<path d="M0 92.6656H97.3544V0.888977H0V92.6656Z" fill="black"/>
</mask>
<g mask="url(#mask17)">
<path d="M-1.59961 -0.710999H98.9548V94.2656H-1.59961V-0.710999Z" fill="white"/>
</g>
</g>
</g>
</g>
<defs>
<clipPath id="clip0">
<rect width="320" height="91.777" fill="white" transform="translate(0 0.888977)"/>
</clipPath>
<clipPath id="clip1">
<rect width="97.3546" height="91.777" fill="white" transform="translate(0 0.888977)"/>
</clipPath>
</defs>
</svg>
